<svg width="175" height="26" viewBox="0 0 288 35" fill="none" xmlns="http://www.w3.org/2000/svg">
<path d="M40.032 31.8C40.032 31.928 39.952 32.232 39.792 32.712C39.376 33.224 38.384 33.48 36.816 33.48C36.72 33.48 36.336 33.432 35.664 33.336C35.024 33.24 34.672 33.208 34.608 33.24L34.416 33.096C34.16 32.968 33.84 32.936 33.456 33L32.736 32.712C32.512 32.36 32.272 32.104 32.016 31.944L31.968 31.704L31.632 31.56C31.44 31.24 31.184 30.968 30.864 30.744C30.8 30.584 30.576 30.104 30.192 29.304C29.968 28.824 29.84 28.264 29.808 27.624L29.664 27.48C29.632 27.288 29.648 27.032 29.712 26.712L29.568 26.424C29.6 25.848 29.616 25.4 29.616 25.08C29.616 24.792 29.552 24.392 29.424 23.88C29.456 23.816 29.488 23.736 29.52 23.64C29.552 23.512 29.568 23.432 29.568 23.4C29.504 22.76 29.584 22.312 29.808 22.056C29.712 21.8 29.68 21.608 29.712 21.48C29.808 20.872 29.888 20.392 29.952 20.04C30.016 19.656 30.064 19.4 30.096 19.272C30.128 19.112 30.144 19.08 30.144 19.176C30.144 18.952 30.032 18.68 29.808 18.36V17.976C30.16 16.312 30.272 15.256 30.144 14.808L30.48 14.424C30.544 13.688 30.624 12.36 30.72 10.44L30.576 10.248L30.624 9.528L30.48 9.288L30.432 8.76L30.288 8.568L30.24 8.376L30.288 7.992C30.16 7.384 29.952 7 29.664 6.84L29.616 6.552L29.376 6.456L29.184 5.976C28.96 5.72 28.624 5.432 28.176 5.112L27.504 5.016L27.408 4.872C27.12 4.776 26.848 4.744 26.592 4.776L26.208 4.92H26.016L25.632 5.16C25.216 5.608 24.944 6.728 24.816 8.52C24.656 10.568 24.512 11.768 24.384 12.12C24.384 12.312 24.496 12.568 24.72 12.888L24.768 13.32L24.432 13.848L24.72 13.8L24.768 14.472L24.432 14.952L24.48 15.336L24.912 15.816C24.976 16.328 24.976 16.664 24.912 16.824L25.056 17.688C24.896 18.072 24.816 18.76 24.816 19.752C24.816 19.816 24.896 20.104 25.056 20.616C24.992 20.808 24.96 21.096 24.96 21.48L24.336 22.248H24.816L24.96 22.584V22.872C24.928 22.968 24.912 23.064 24.912 23.16C24.912 23.096 24.944 23.448 25.008 24.216L25.392 24.792C25.456 25.08 25.504 25.4 25.536 25.752L25.44 26.184C25.536 26.472 25.664 27.016 25.824 27.816L25.968 28.008C26.032 28.52 26.416 29.08 27.12 29.688C27.824 30.296 28.448 30.68 28.992 30.84L29.28 30.792L29.472 31.032L29.712 31.176C29.872 31.4 29.952 31.704 29.952 32.088C29.92 32.184 29.84 32.344 29.712 32.568C29.584 32.76 29.504 32.904 29.472 33L29.136 33.096L28.944 33.288C28.56 33.448 28.064 33.528 27.456 33.528C27.328 33.528 27.024 33.496 26.544 33.432C26.064 33.368 25.744 33.336 25.584 33.336C25.392 33.208 24.944 33.112 24.24 33.048C23.568 32.984 23.168 32.904 23.04 32.808H22.416L22.08 32.664C21.728 32.728 21.408 32.744 21.12 32.712L20.88 32.568L20.688 32.664H20.448L20.064 32.28H19.776L19.44 32.424C19.024 32.392 18.624 32.424 18.24 32.52C18.144 32.488 18.064 32.472 18 32.472C17.936 32.472 17.744 32.488 17.424 32.52C17.328 32.648 17.168 32.76 16.944 32.856L16.848 32.616L16.176 32.52L15.888 32.664H15.744C15.264 32.856 14.72 33.304 14.112 34.008C13.792 34.04 13.536 34.072 13.344 34.104C12.992 34.104 12.656 33.96 12.336 33.672C12.048 33.416 11.92 33.064 11.952 32.616C11.952 32.52 11.968 32.296 12 31.944C12.192 31.528 12.416 31.128 12.672 30.744C13.024 30.552 13.44 30.312 13.92 30.024C14.816 29.672 15.296 29.48 15.36 29.448C15.872 29.192 16.288 28.888 16.608 28.536C17.024 27.736 17.232 26.872 17.232 25.944L17.328 25.752C17.296 25.624 17.28 25.528 17.28 25.464C17.28 25.336 17.296 25.048 17.328 24.6C17.392 24.152 17.424 23.864 17.424 23.736L17.232 23.496L17.28 23.112L17.52 22.68L17.472 22.392C17.504 22.36 17.52 21.848 17.52 20.856C17.52 20.792 17.504 20.696 17.472 20.568V20.232C17.568 20.072 17.616 19.896 17.616 19.704C17.52 19.544 17.472 19.4 17.472 19.272L17.616 18.552L17.472 18.216V17.736L17.664 17.4C17.6 16.888 17.584 16.392 17.616 15.912L17.712 14.424C17.712 13.72 17.664 12.888 17.568 11.928L17.424 11.688C17.52 11.016 17.568 10.632 17.568 10.536L17.472 10.296C17.472 10.072 17.536 9.848 17.664 9.624C17.632 9.4 17.568 9.048 17.472 8.568C17.504 8.504 17.52 8.312 17.52 7.992V7.128L17.376 6.744V5.832C17.152 5.48 16.976 5.24 16.848 5.112C16.176 4.92 15.84 4.824 15.84 4.824L14.832 4.968C14.416 5.032 14.016 5.352 13.632 5.928L12.768 7.224V7.704L12.192 8.328V8.808C12.16 8.936 12.096 9.144 12 9.432L12.144 10.104C12.08 10.2 11.952 10.376 11.76 10.632C11.824 10.856 11.92 11.08 12.048 11.304L11.904 11.688C11.872 12.552 11.936 13.128 12.096 13.416L11.856 13.464L11.904 13.8H12.144C12.336 14.376 12.48 15.096 12.576 15.96C13.184 16.856 13.488 17.704 13.488 18.504C13.488 18.728 13.248 19.272 12.768 20.136L12.672 20.76C12.736 20.92 12.848 21.368 13.008 22.104C12.976 22.36 12.944 22.584 12.912 22.776C12.944 22.808 12.976 22.968 13.008 23.256L12.672 23.592L12.816 23.88L13.2 23.976C13.2 24.04 13.136 24.344 13.008 24.888C12.88 25.4 12.8 25.96 12.768 26.568L12.528 27.192V27.672C12.464 27.8 12.336 27.976 12.144 28.2C12.016 28.712 11.824 29.352 11.568 30.12C11.376 30.472 11.136 30.888 10.848 31.368C10.368 31.944 9.728 32.456 8.928 32.904C8 33.416 7.232 33.624 6.624 33.528L6.288 33.672H4.992C4.448 33.672 3.424 33.384 1.92 32.808C1.344 32.392 0.944 31.88 0.72 31.272V30.936L0.432 30.744C0.4 30.68 0.352 30.152 0.288 29.16C0.352 28.968 0.48 28.632 0.672 28.152L1.2 27.672C1.968 27.416 2.432 27.304 2.592 27.336C2.848 27.368 3.216 27.624 3.696 28.104C3.888 28.424 3.984 28.744 3.984 29.064C3.984 29.352 3.872 29.768 3.648 30.312L3.696 30.648L3.984 31.08C4.272 31.112 4.512 31.144 4.704 31.176C4.768 31.176 4.96 31.16 5.28 31.128L5.712 30.888C5.744 30.664 5.888 30.456 6.144 30.264L6.432 29.208C6.432 29.112 6.384 28.728 6.288 28.056C6.224 27.384 6.208 26.936 6.24 26.712L6.096 26.472C6.064 26.312 6.048 26.12 6.048 25.896C5.824 25.544 5.68 25.016 5.616 24.312L5.376 24.024C5.28 23.832 5.088 23.224 4.8 22.2C4.512 21.144 4.368 20.52 4.368 20.328C4.016 19.528 3.84 18.008 3.84 15.768C3.84 14.424 4.16 13.144 4.8 11.928L4.752 11.544C4.784 11.288 4.96 10.84 5.28 10.2C5.632 9.56 5.904 9.176 6.096 9.048V8.376C6.224 8.152 6.448 7.96 6.768 7.8L6.912 7.368C7.136 7.272 7.648 6.648 8.448 5.496L8.832 5.304L9.168 4.872C9.488 4.712 9.792 4.552 10.08 4.392L10.176 4.2C10.56 3.944 10.944 3.768 11.328 3.672C11.488 3.48 12.208 3.064 13.488 2.424H13.68L13.872 2.184L14.112 2.232C14.624 2.168 15.088 2.024 15.504 1.8C16.24 1.864 16.848 1.768 17.328 1.512L17.52 1.56C17.84 1.528 18.352 1.448 19.056 1.32L19.728 1.176C19.952 1.304 20.352 1.368 20.928 1.368C20.992 1.368 21.136 1.352 21.36 1.32C21.616 1.256 21.792 1.224 21.888 1.224H22.416L22.848 1.416L23.184 1.32C23.248 1.352 23.568 1.368 24.144 1.368C24.176 1.368 24.24 1.352 24.336 1.32L24.672 1.512C24.8 1.48 24.896 1.464 24.96 1.464C25.024 1.464 25.232 1.48 25.584 1.512C25.936 1.544 26.176 1.56 26.304 1.56L26.496 1.656H26.88L26.976 1.704C27.648 1.832 28.608 2.12 29.856 2.568C30.208 2.792 30.576 2.968 30.96 3.096L31.248 3.288H31.68L31.872 4.056H32.112L32.784 4.488L33.648 4.584L33.792 5.16C35.232 6.952 36.064 7.912 36.288 8.04L36.192 8.568L36.432 9.192L36.72 9.288C37.36 9.928 37.888 11.176 38.304 13.032C38.336 13.672 38.432 14.648 38.592 15.96L38.496 16.2C38.56 16.808 38.432 17.832 38.112 19.272C38.144 19.368 38.16 19.576 38.16 19.896C38 20.152 37.856 20.456 37.728 20.808L37.824 21.096C37.76 21.608 37.616 22.024 37.392 22.344L37.44 23.064C37.376 23.16 37.264 23.336 37.104 23.592C37.104 24.008 36.928 24.568 36.576 25.272C36.608 25.432 36.624 25.56 36.624 25.656C36.624 25.72 36.592 25.896 36.528 26.184C36.464 26.44 36.432 26.6 36.432 26.664C36.432 27.048 36.48 27.32 36.576 27.48C36.544 27.544 36.48 27.656 36.384 27.816C36.288 27.944 36.208 28.056 36.144 28.152V28.44L36.288 28.632C36.288 28.824 36.304 29 36.336 29.16L36.672 29.544C36.608 29.864 36.768 30.232 37.152 30.648L37.68 30.984H37.872L38.16 30.792C38.416 30.76 38.624 30.744 38.784 30.744C38.88 30.744 39.104 30.76 39.456 30.792L39.984 31.368C40.016 31.56 40.032 31.704 40.032 31.8ZM71.8571 16.2C71.7931 16.424 71.6491 16.952 71.4251 17.784C71.0091 19.256 70.7371 20.68 70.6091 22.056L70.3691 22.488C70.3371 22.392 70.2731 22.824 70.1771 23.784C70.0171 24.072 69.8731 24.232 69.7451 24.264L69.6491 24.456L69.6971 24.696L69.6011 25.128L69.2171 25.368C69.2171 25.816 69.0891 26.264 68.8331 26.712C68.6731 26.808 68.4971 26.92 68.3051 27.048C68.2731 27.56 68.0171 28.088 67.5371 28.632C66.9291 29.336 66.5771 29.8 66.4811 30.024C66.1611 30.28 65.7611 30.632 65.2811 31.08L64.7051 31.224L64.3691 30.792L64.4171 31.272L64.2251 31.8C63.6491 32.408 62.8491 32.856 61.8251 33.144L61.5851 33.336C61.2011 33.4 60.7211 33.496 60.1451 33.624C59.9211 33.592 59.6171 33.624 59.2331 33.72L59.0411 33.576L58.5611 33.816L57.8411 33.672L57.5531 33.864C57.0411 33.832 56.2731 33.768 55.2491 33.672C54.2571 33.576 53.5851 33.384 53.2331 33.096L52.6091 33.048C51.1371 32.408 50.0491 31.736 49.3451 31.032L49.1531 30.984L48.9611 30.744L48.9131 30.504C48.3691 29.96 47.8731 29.512 47.4251 29.16C47.3931 29.096 47.3451 28.984 47.2811 28.824C47.2171 28.664 47.1531 28.536 47.0891 28.44L46.8491 28.296C46.8171 28.264 46.6411 28.056 46.3211 27.672L45.5531 25.848L45.6491 25.512L45.6011 25.272L45.4091 24.984L45.0731 24.744L44.8811 24.456L45.0731 24.168L44.9771 23.784L44.6891 23.592C44.5291 23.016 44.4651 22.664 44.4971 22.536L44.2571 22.488L44.1611 22.152L44.2571 21.816L44.2091 21.384L44.0171 21.096C44.0171 21 43.9211 20.392 43.7291 19.272C43.5371 18.152 43.4251 17.544 43.3931 17.448C43.3611 17.352 43.2011 17.032 42.9131 16.488V16.152C42.9131 15.864 43.0091 15.656 43.2011 15.528L44.0651 15.048L44.1611 14.04C44.1931 13.976 44.2891 13.8 44.4491 13.512V13.08C44.6411 12.696 44.8011 12.056 44.9291 11.16C45.0571 10.264 45.2331 9.56 45.4571 9.048C45.7451 8.824 46.1451 8.216 46.6571 7.224C47.2011 6.232 47.5051 5.72 47.5691 5.688L48.0971 5.592L48.6251 5.112L48.5291 4.728C48.8171 4.344 49.3611 3.928 50.1611 3.48C50.9611 3.032 51.5051 2.664 51.7931 2.376C52.2091 2.312 52.8971 2.2 53.8571 2.04C54.9771 1.848 55.7131 1.688 56.0651 1.56L56.3531 1.704L56.9771 1.752L57.0251 1.512H57.5051C57.9531 1.512 58.5611 1.576 59.3291 1.704C60.1291 1.832 60.7051 1.896 61.0571 1.896L61.2491 2.088C61.6971 2.024 62.0011 2.072 62.1611 2.232V2.616L62.5931 2.664L62.8331 2.568C63.2811 2.824 63.6011 2.92 63.7931 2.856L66.3851 4.536L66.4811 4.728L67.0091 4.872L67.1051 5.256L67.2971 5.4C67.6491 5.784 68.0011 6.248 68.3531 6.792V7.032C68.4491 7.128 68.7051 7.544 69.1211 8.28C69.6971 9.304 70.2411 11.56 70.7531 15.048C70.9771 15.272 71.3131 15.48 71.7611 15.672L71.8571 16.2ZM63.5531 17.736L63.5051 17.448L63.3131 17.352C63.3131 16.84 63.2491 16.264 63.1211 15.624L62.8331 15.528C62.7371 15.336 62.6891 14.936 62.6891 14.328L62.8331 13.32C62.8011 13.192 62.7211 13 62.5931 12.744L62.7851 12.456V11.784L62.5451 11.256C62.5771 11.096 62.6731 10.84 62.8331 10.488V9.768L62.7371 9.96C62.7051 9.8 62.5611 9.656 62.3051 9.528L62.3531 9.192L62.0651 8.616L62.0171 7.992L61.7771 7.56V7.272L61.5851 6.792L61.3931 6.648L61.2011 5.688C61.0411 5.56 60.7211 5.256 60.2411 4.776L60.0491 4.824L59.6171 4.296L58.7531 3.912L58.5131 4.008L57.7931 3.816L55.8251 4.152C55.7931 4.152 55.1851 4.616 54.0011 5.544C53.9371 5.832 53.7611 6.104 53.4731 6.36C53.4411 6.584 53.3771 6.984 53.2811 7.56L52.8491 7.896V8.616C52.7531 8.84 52.5611 9.256 52.2731 9.864L52.4171 10.392C52.3851 10.648 52.2571 11.096 52.0331 11.736C51.9051 12.024 51.8731 12.744 51.9371 13.896L51.8891 13.656V14.904C51.7611 15.032 51.6971 15.672 51.6971 16.824C51.6971 17.08 51.7451 17.336 51.8411 17.592L52.5131 17.736C52.4171 18.92 52.5611 19.928 52.9451 20.76L52.7531 21.384C52.7851 21.8 52.8171 22.136 52.8491 22.392C52.8491 22.456 52.8011 22.664 52.7051 23.016L52.8971 23.976L53.1851 24.408C53.1211 24.6 53.0891 25 53.0891 25.608C53.0891 25.384 53.1691 25.688 53.3291 26.52L53.7131 28.488L53.9051 28.632V29.016C54.0971 29.304 54.4171 29.816 54.8651 30.552C55.2811 30.68 55.5851 30.888 55.7771 31.176L56.1131 31.224L56.4011 31.416C56.5611 31.448 56.6891 31.464 56.7851 31.464C57.4251 31.464 57.7131 31.448 57.6491 31.416L57.8891 31.32L58.3691 31.416C58.8171 31.256 59.3611 30.936 60.0011 30.456H60.1931C60.2891 30.328 60.5291 30.072 60.9131 29.688C61.6811 28.216 62.0171 27.144 61.9211 26.472C62.2731 25.928 62.4491 25.288 62.4491 24.552C62.5131 24.456 62.5771 24.232 62.6411 23.88L62.4971 23.352C62.7531 22.776 62.8651 22.328 62.8331 22.008L62.9771 22.152L63.1211 21.528L62.9291 21.624L62.8331 21.24L62.9291 20.856C62.8651 20.696 62.9131 20.104 63.0731 19.08L63.2171 18.84C63.2491 18.648 63.2331 18.36 63.1691 17.976L63.4091 18.072L63.5531 17.736ZM101.693 23.928C101.693 23.928 101.469 24.264 101.021 24.936L100.973 25.32C100.845 25.448 100.653 25.72 100.397 26.136L100.349 26.568L100.205 26.808V27L99.6289 27.528L99.7249 27.912C99.6609 28.072 99.2769 28.344 98.5729 28.728L98.9089 29.304L98.5729 29.736C98.3169 29.864 97.9009 30.216 97.3249 30.792C96.7489 31.336 96.3969 31.656 96.2689 31.752L96.3169 31.512L96.0769 31.464L95.9329 31.896C94.7809 32.536 93.7729 32.952 92.9089 33.144C92.6849 33.112 92.4929 33.096 92.3329 33.096C92.4289 33.096 91.7089 33.192 90.1729 33.384L89.9329 33.288L89.6449 33.384C88.3969 33.224 87.7409 33.176 87.6769 33.24L87.1489 33.048L87.0049 33.096C86.5889 33.032 85.9809 32.968 85.1809 32.904L84.7009 33.048L84.4129 32.808C84.4129 32.712 84.3809 32.44 84.3169 31.992C84.1249 32.024 83.9009 32.232 83.6449 32.616L83.1169 32.76L82.7329 32.472C82.3809 32.472 81.8849 32.376 81.2449 32.184L81.0049 32.28C80.8449 32.248 80.7169 32.216 80.6209 32.184H79.2769C78.8929 32.28 78.4929 32.312 78.0769 32.28C77.5649 32.504 77.1329 32.696 76.7809 32.856C76.7169 32.92 76.3969 33.304 75.8209 34.008L75.4369 34.248L74.2369 34.44C73.9489 34.248 73.5969 33.832 73.1809 33.192L73.1329 32.472L73.6129 31.272C73.8689 30.888 74.1409 30.632 74.4289 30.504L74.6689 30.456C74.9249 30.168 75.5329 29.816 76.4929 29.4L76.5889 29.256L77.2609 28.776C77.9009 27.496 78.2049 26.776 78.1729 26.616C78.1409 26.488 78.0769 26.312 77.9809 26.088C77.9809 25.896 78.0769 25.656 78.2689 25.368C78.2689 25.304 78.2369 25.096 78.1729 24.744C78.1409 24.392 78.1249 24.152 78.1249 24.024C78.1249 23.64 78.1729 23.288 78.2689 22.968L78.5569 22.776V22.632L78.6529 22.776V22.824C78.7809 22.472 78.8449 22.104 78.8449 21.72C78.8449 21.688 78.8289 21.592 78.7969 21.432L78.4609 21.24L78.3649 20.664C78.4609 20.216 78.5089 19.864 78.5089 19.608C78.5089 19.544 78.4769 19.4 78.4129 19.176C78.3489 18.952 78.3169 18.808 78.3169 18.744C78.3169 18.648 78.3649 18.472 78.4609 18.216C78.5889 17.928 78.6529 17.752 78.6529 17.688L78.6049 15.864L78.7969 15.528L78.8449 13.848C78.8449 13.688 78.8129 13.368 78.7489 12.888C78.7169 12.376 78.7009 12.072 78.7009 11.976C78.7329 11.752 78.7489 11.256 78.7489 10.488L78.6529 10.248C78.7169 9.768 78.7169 9.352 78.6529 9L78.5089 8.76L78.4609 8.328L78.5569 7.944C78.4929 7.464 78.3329 6.744 78.0769 5.784C77.9809 5.688 77.8529 5.576 77.6929 5.448C77.5649 5.32 77.4849 5.24 77.4529 5.208H77.2609L76.4929 4.872C76.2689 4.648 76.0289 4.392 75.7729 4.104C75.5169 3.816 75.3729 3.416 75.3409 2.904C75.3729 2.68 75.5009 2.264 75.7249 1.656C76.0769 1.496 76.3169 1.352 76.4449 1.224L78.2209 1.512C78.4129 1.736 78.7649 2.152 79.2769 2.76C79.4369 2.856 79.9009 2.904 80.6689 2.904C81.0849 2.904 82.2049 2.744 84.0289 2.424C84.1889 2.328 84.7009 2.216 85.5649 2.088C86.3329 1.96 86.8769 1.896 87.1969 1.896H90.3169C90.0609 1.896 90.6049 1.944 91.9489 2.04L91.8529 2.424L92.1889 2.568L92.3329 2.232H92.5249C92.6849 2.232 93.0049 2.312 93.4849 2.472C93.9969 2.6 94.2849 2.664 94.3489 2.664C94.4129 2.76 94.6689 2.888 95.1169 3.048L95.5009 3.48L95.8369 3.432L96.1729 3.864C96.6209 3.992 97.1969 4.6 97.9009 5.688C98.6369 6.776 98.9569 7.544 98.8609 7.992C98.9889 8.216 99.1809 8.68 99.4369 9.384L99.0529 10.008C99.0209 10.104 98.9089 10.728 98.7169 11.88C97.8849 13.512 96.6849 14.792 95.1169 15.72L93.6769 16.056L92.9089 16.68C93.3249 16.712 94.0769 16.888 95.1649 17.208L95.3089 17.16L95.6449 17.304C95.8689 17.304 96.0769 17.288 96.2689 17.256L96.4129 17.496L96.9409 17.784L97.3249 17.736L97.4689 17.928L97.4209 18.12L98.3809 18.744L98.7649 18.696L98.9089 18.888V19.176C99.6129 19.72 100.381 20.984 101.213 22.968C101.309 23.096 101.469 23.416 101.693 23.928ZM93.0529 24.168L92.7169 23.832C92.6849 23.352 92.6209 22.568 92.5249 21.48C92.3969 21.064 92.1729 20.328 91.8529 19.272C90.8289 18.248 90.1569 17.752 89.8369 17.784L89.3569 17.352L89.1649 17.4L88.6369 17.112H88.2529C87.8689 16.536 87.3889 16.056 86.8129 15.672V14.856C86.8129 14.376 87.0369 13.944 87.4849 13.56C87.9649 13.176 88.4449 13 88.9249 13.032L89.6449 13.368L90.0769 14.04L90.3169 15.528C90.8289 15.304 91.2609 14.824 91.6129 14.088C91.9649 13.352 92.1409 12.664 92.1409 12.024L92.2369 11.832C92.2689 11.384 92.2369 11.032 92.1409 10.776L92.2369 10.344L92.4769 10.008V9.816L92.4289 9.048L91.9009 8.376L91.8529 7.992L91.9489 7.704L91.7089 7.128L91.5649 6.984C91.5649 6.76 91.4689 6.488 91.2769 6.168L91.5649 5.688L90.9409 5.736L89.8849 4.776C89.1809 4.552 88.7329 4.44 88.5409 4.44C88.5089 4.44 88.3809 4.456 88.1569 4.488L87.9649 4.632L87.2449 4.776C87.0849 5 86.7329 5.352 86.1889 5.832L85.9969 6.648L86.1409 7.368C85.9169 8.04 85.8049 8.616 85.8049 9.096V9.528L85.9969 9.96C85.9009 10.216 85.8209 10.824 85.7569 11.784C85.6929 12.744 85.7089 13.368 85.8049 13.656C85.6449 13.72 85.4849 13.848 85.3249 14.04L85.7089 14.376C85.6769 14.6 85.6609 14.776 85.6609 14.904C85.6609 15.96 85.7249 16.984 85.8529 17.976L86.1409 18.6V19.224C85.9169 19.512 85.8049 20.024 85.8049 20.76C85.8049 21.048 85.8209 21.384 85.8529 21.768C85.7249 21.96 85.6289 22.168 85.5649 22.392V22.68C85.6929 22.744 85.8689 22.856 86.0929 23.016C86.0929 23.144 86.0769 23.416 86.0449 23.832C86.0129 24.216 85.9969 24.456 85.9969 24.552C85.9969 24.616 86.0289 24.808 86.0929 25.128C86.1889 25.416 86.2369 25.608 86.2369 25.704C86.2369 25.736 86.2209 25.832 86.1889 25.992V26.28L86.3809 26.376C86.4769 26.792 86.6689 27.464 86.9569 28.392L86.9089 29.112L87.4369 29.4L87.4849 29.928L87.7249 30.024L87.9649 30.552C88.3169 30.84 88.7489 30.984 89.2609 30.984C89.3249 30.984 89.4369 30.968 89.5969 30.936H89.9809L90.1249 30.792C90.3489 30.792 90.6209 30.664 90.9409 30.408C91.2609 30.12 91.4369 29.864 91.4689 29.64L91.7569 29.4C91.8849 28.984 92.1089 28.232 92.4289 27.144L92.9089 27.192L92.5249 26.76C92.4609 26.376 92.4289 26.184 92.4289 26.184C92.4289 26.024 92.4769 25.88 92.5729 25.752C92.5409 25.688 92.5249 25.48 92.5249 25.128C92.5249 24.872 92.5729 24.632 92.6689 24.408L92.6209 24.12L93.0529 24.168ZM146.777 14.232C146.777 14.264 146.761 14.408 146.729 14.664C146.537 14.856 146.393 15.064 146.297 15.288C145.721 15.544 145.289 15.672 145.001 15.672C144.425 15.672 143.929 15.464 143.513 15.048C143.449 14.984 143.289 14.76 143.033 14.376C142.937 14.056 142.793 13.48 142.601 12.648C142.441 11.816 142.313 10.968 142.217 10.104C142.121 9.944 141.977 9.512 141.785 8.808C141.433 8.36 141.113 7.768 140.825 7.032L140.585 6.984C140.393 6.728 140.105 6.376 139.721 5.928C138.441 5.16 137.353 4.856 136.457 5.016C136.105 5.08 135.433 5.4 134.441 5.976L134.297 6.456L133.913 6.744C133.817 6.904 133.673 7.432 133.481 8.328C133.289 9.224 133.193 9.8 133.193 10.056C133.193 10.088 133.209 10.184 133.241 10.344C133.273 10.472 133.289 10.568 133.289 10.632L133.385 10.872C133.353 10.904 133.337 11.208 133.337 11.784C133.305 13.288 133.337 14.12 133.433 14.28H134.057C134.249 14.312 134.457 14.328 134.681 14.328C135.161 14.328 135.849 14.264 136.745 14.136L137.129 14.232L137.417 14.04H137.753C138.489 13.592 139.161 13.016 139.769 12.312C139.961 12.088 140.265 11.976 140.681 11.976C140.969 11.976 141.241 12.104 141.497 12.36C141.689 13.256 141.769 13.72 141.737 13.752C141.257 15.224 141.065 16.264 141.161 16.872L141.017 17.208C141.177 17.72 141.209 18.168 141.113 18.552L141.401 18.936C141.593 19.544 141.689 20.008 141.689 20.328C141.689 20.808 141.561 21.304 141.305 21.816C141.017 22.456 140.665 22.792 140.249 22.824H139.961L139.385 22.584L138.905 22.104L138.809 21.768C138.809 21.64 138.841 21.384 138.905 21C139.001 20.616 139.049 20.376 139.049 20.28C139.049 19.704 138.633 19.176 137.801 18.696C137.225 18.6 136.761 18.552 136.409 18.552C134.905 18.552 133.961 18.616 133.577 18.744C133.545 18.84 133.529 18.92 133.529 18.984C133.529 19.048 133.545 19.256 133.577 19.608L133.913 19.944V20.28C133.913 20.536 133.849 20.776 133.721 21C133.721 21.448 133.817 22.04 134.009 22.776C133.977 23.096 133.961 23.352 133.961 23.544C133.993 23.64 134.057 23.912 134.153 24.36L134.105 24.6L133.865 24.84C133.833 24.936 133.817 25.144 133.817 25.464C133.849 25.528 133.929 25.784 134.057 26.232L134.537 26.52L134.681 26.808L134.585 27.096L134.681 27.816C134.873 28.072 135.033 28.392 135.161 28.776L135.833 29.448L136.169 29.592L136.409 30.264L136.649 30.168C136.777 30.232 136.905 30.36 137.033 30.552L137.465 30.648L138.761 30.12L139.049 30.216C139.177 29.8 139.225 29.528 139.193 29.4C139.321 29.176 139.417 28.952 139.481 28.728C139.929 28.344 140.377 28.152 140.825 28.152H141.161C141.321 28.216 141.625 28.376 142.073 28.632C142.393 28.984 142.553 29.528 142.553 30.264C142.553 30.136 142.425 30.504 142.169 31.368C141.817 31.784 141.417 32.2 140.969 32.616C140.553 32.808 139.705 33.032 138.425 33.288L138.233 33.384C137.817 33.352 137.465 33.384 137.177 33.48C136.185 33.32 135.241 33.192 134.345 33.096L134.105 32.952C133.529 32.888 133.033 32.856 132.617 32.856C132.553 32.856 132.425 32.824 132.233 32.76C132.041 32.696 131.929 32.664 131.897 32.664C130.873 32.504 130.169 32.456 129.785 32.52C129.561 32.328 129.241 32.216 128.825 32.184C128.665 32.248 128.489 32.312 128.297 32.376C127.785 32.28 127.289 32.232 126.809 32.232C126.713 32.232 126.393 32.28 125.849 32.376C125.305 32.44 124.937 32.456 124.745 32.424C124.553 32.616 124.281 32.776 123.929 32.904L123.689 33.48L122.585 34.344C122.297 34.312 121.897 34.248 121.385 34.152L120.905 33.768L120.617 33.288V32.952C120.617 31.832 120.969 31.064 121.673 30.648L121.769 30.456C122.121 30.264 122.489 30.072 122.873 29.88C122.873 29.88 123.241 29.624 123.977 29.112C124.585 28.664 125.033 28.184 125.321 27.672L126.089 24.6L125.897 24.024L125.993 23.4L126.137 23.208C126.041 22.952 125.993 22.552 125.993 22.008C125.993 20.536 126.057 19.72 126.185 19.56C126.121 18.856 126.089 18.632 126.089 18.888L125.993 18.648C125.993 18.36 126.041 18.008 126.137 17.592L125.897 17.352C125.833 17.16 125.817 16.984 125.849 16.824C126.041 16.568 126.137 16.12 126.137 15.48C126.137 15.064 126.201 14.712 126.329 14.424L126.233 14.184L126.281 13.944L126.185 13.752C126.185 13.528 126.201 13.08 126.233 12.408C126.265 11.736 126.281 11.32 126.281 11.16C126.281 10.936 126.249 10.376 126.185 9.48C126.153 8.808 126.153 8.264 126.185 7.848L125.897 7.512C126.153 7.16 126.233 6.84 126.137 6.552C126.041 6.104 125.801 5.48 125.417 4.68C124.937 4.616 124.601 4.536 124.409 4.44L124.361 4.248L124.169 4.104H123.737C123.033 3.88 122.681 3.256 122.681 2.232C122.713 2.168 122.745 2.04 122.777 1.848L123.353 1.128L124.073 0.792H124.409C124.537 0.792 124.873 0.823999 125.417 0.887999L125.993 1.176C126.313 1.56 126.537 1.832 126.665 1.992L127.145 2.28C127.273 2.248 127.609 2.264 128.153 2.328C128.729 2.392 129.081 2.424 129.209 2.424C129.337 2.424 129.705 2.472 130.313 2.568C130.921 2.664 131.289 2.712 131.417 2.712C131.481 2.712 131.593 2.696 131.753 2.664C131.945 2.6 132.057 2.568 132.089 2.568C132.281 2.568 132.713 2.584 133.385 2.616C134.089 2.648 134.537 2.664 134.729 2.664C134.793 2.664 134.953 2.648 135.209 2.616C135.465 2.584 135.641 2.568 135.737 2.568L136.169 2.856V3.096L136.841 2.664C137.065 2.696 137.257 2.712 137.417 2.712C138.217 2.712 138.921 2.696 139.529 2.664L139.769 2.568C140.057 2.632 140.697 2.6 141.689 2.472C142.713 2.344 143.353 2.216 143.609 2.088C143.769 1.832 143.961 1.64 144.185 1.512C144.793 1.704 145.177 1.88 145.337 2.04C145.337 2.104 145.449 2.68 145.673 3.768C145.673 3.768 145.641 4.536 145.577 6.072L145.241 6.744C145.241 6.84 145.321 7 145.481 7.224C145.449 7.768 145.305 8.6 145.049 9.72L145.145 9.912C145.113 10.136 145.097 10.328 145.097 10.488C145.033 11.352 145.065 11.992 145.193 12.408C145.289 12.376 145.593 12.44 146.105 12.6C146.361 12.856 146.553 13.064 146.681 13.224C146.681 13.32 146.697 13.496 146.729 13.752C146.761 14.008 146.777 14.168 146.777 14.232ZM176.166 2.76C176.166 2.824 176.054 3.176 175.83 3.816C175.606 4.424 175.494 4.84 175.494 5.064C175.494 5.256 175.526 5.704 175.59 6.408C175.686 7.112 175.734 7.576 175.734 7.8C175.734 7.832 175.718 7.928 175.686 8.088C175.846 9.176 175.91 10.344 175.878 11.592L176.07 12.024L176.022 13.56L175.83 13.704L175.686 14.088V14.424C175.718 14.456 175.75 14.616 175.782 14.904L176.022 15.24V16.056L175.83 16.104C175.702 17.32 175.494 18.216 175.206 18.792C174.918 19.336 174.342 20.056 173.478 20.952C173.03 21.4 172.422 21.624 171.654 21.624C171.526 21.56 171.302 21.496 170.982 21.432C170.95 21.432 170.774 21.4 170.454 21.336C170.39 21.272 170.166 20.776 169.782 19.848V19.656C169.814 19.56 169.862 19.336 169.926 18.984C170.022 18.888 170.134 18.792 170.262 18.696C170.39 18.568 170.47 18.488 170.502 18.456C171.014 18.232 171.462 18.2 171.846 18.36L172.182 18.312C172.502 18.088 172.758 17.624 172.95 16.92L172.902 16.584C172.902 16.552 172.982 16.344 173.142 15.96L173.046 15.24L173.19 14.952C173.094 14.696 173.014 14.296 172.95 13.752L172.422 13.608L171.99 12.744C171.926 12.104 171.814 11.176 171.654 9.96C171.494 8.872 171.126 8.04 170.55 7.464V7.224L170.262 7.128C170.102 7 169.894 6.664 169.638 6.12C169.51 6.024 169.286 5.864 168.966 5.64L168.63 5.592L168.342 5.352C168.086 5.32 167.878 5.304 167.718 5.304C167.654 5.304 167.51 5.336 167.286 5.4C166.934 5.752 166.71 5.992 166.614 6.12C166.39 6.696 166.262 7.736 166.23 9.24C166.198 10.36 166.214 11.496 166.278 12.648C166.278 12.648 166.15 12.84 165.894 13.224V14.088C165.926 14.312 166.054 14.552 166.278 14.808C166.278 15.384 166.246 15.896 166.182 16.344L166.614 17.208V17.496C166.454 17.752 166.374 18.328 166.374 19.224C166.374 19.256 166.342 19.496 166.278 19.944C166.214 20.36 166.198 20.632 166.23 20.76L166.422 21.048C166.358 21.144 166.294 21.368 166.23 21.72C166.294 21.784 166.406 21.928 166.566 22.152L166.422 22.728C166.486 23.016 166.55 23.464 166.614 24.072C166.486 24.2 166.422 24.36 166.422 24.552L166.518 24.744L166.71 24.552L167.19 24.696L167.094 24.936L167.238 25.656C167.174 25.816 167.046 26.088 166.854 26.472L166.95 26.808L167.526 27.48C167.526 27.672 167.51 27.832 167.478 27.96L167.862 28.344C167.894 29.144 168.438 29.864 169.494 30.504C169.686 30.536 170.15 30.664 170.886 30.888H171.174L171.558 30.648L171.702 30.408V29.544L171.942 29.016C172.006 28.952 172.198 28.728 172.518 28.344L173.334 28.152C173.846 28.184 174.246 28.296 174.534 28.488L174.966 29.064C175.158 29.608 175.238 30.04 175.206 30.36L175.014 30.696C174.95 31.304 174.486 31.928 173.622 32.568C173.526 32.6 173.318 32.568 172.998 32.472L172.614 33.144L172.182 33.48H171.942L171.51 33.672L171.03 33.24C170.87 33.336 170.454 33.464 169.782 33.624C169.206 33.624 168.358 33.544 167.238 33.384C166.118 33.224 165.27 33.144 164.694 33.144L164.406 32.952C164.182 32.92 163.958 32.936 163.734 33L163.59 32.808C163.59 32.808 163.302 32.776 162.726 32.712C162.502 32.52 161.91 32.424 160.95 32.424C159.318 32.424 158.614 32.44 158.838 32.472C158.71 32.504 158.486 32.568 158.166 32.664C157.942 32.664 157.718 32.6 157.494 32.472L157.062 32.808C156.838 32.904 156.214 33.16 155.19 33.576L154.998 34.008C154.614 34.392 154.278 34.648 153.99 34.776C153.67 34.744 153.35 34.728 153.03 34.728L152.454 34.104L152.262 34.008C152.262 33.912 152.23 33.72 152.166 33.432C152.134 33.176 152.118 33.016 152.118 32.952C152.118 32.184 152.854 31.304 154.326 30.312L154.518 30.264L154.71 30.456L155.094 30.216L155.142 29.88C156.006 29.4 156.694 29.08 157.206 28.92L157.494 28.632L157.59 28.296H157.83C158.022 27.656 158.262 26.904 158.55 26.04L158.406 25.656C158.502 25.368 158.534 25 158.502 24.552L158.262 24.168C158.262 23.848 158.374 23.576 158.598 23.352V22.872L158.79 22.488V22.152C158.79 22.088 158.758 21.944 158.694 21.72C158.662 21.496 158.646 21.352 158.646 21.288L158.934 20.424L158.886 19.848L158.742 19.608C158.678 19.352 158.662 19.096 158.694 18.84L159.078 18.072V17.64C158.854 17.576 158.63 17.48 158.406 17.352L158.55 16.92L158.886 16.68C158.918 16.456 158.95 16.264 158.982 16.104L158.79 15.864C158.822 15.704 158.838 15.592 158.838 15.528C158.838 15.432 158.822 15.208 158.79 14.856C158.918 14.728 159.014 14.52 159.078 14.232C159.046 14.04 159.046 13.848 159.078 13.656C159.078 13.528 159.046 13.352 158.982 13.128L159.078 12.792C159.078 12.632 159.014 12.312 158.886 11.832C158.758 11.352 158.694 11.064 158.694 10.968C158.822 10.68 158.902 10.392 158.934 10.104C158.934 8.664 158.822 7.32 158.598 6.072L157.782 5.592C157.302 5.816 156.566 6.296 155.574 7.032C155.478 7.224 155.286 7.512 154.998 7.896L154.95 8.088C154.662 8.408 154.486 8.664 154.422 8.856L154.182 8.424L153.894 8.568L154.038 9L153.942 9.528C153.878 9.624 153.766 9.784 153.606 10.008C153.67 10.328 153.718 10.584 153.75 10.776C153.526 11.512 153.158 12.616 152.646 14.088C152.678 14.28 152.694 14.424 152.694 14.52C152.694 14.84 152.662 15.336 152.598 16.008C152.534 16.648 152.502 17.128 152.502 17.448C152.598 17.64 152.726 17.992 152.886 18.504L153.318 18.84C153.574 18.808 154.054 18.872 154.758 19.032L155.286 19.656C155.35 20.04 155.382 20.328 155.382 20.52C155.382 21.096 154.87 21.688 153.846 22.296C153.782 22.296 153.67 22.312 153.51 22.344C153.35 22.376 153.254 22.392 153.222 22.392C152.646 22.392 152.214 22.328 151.926 22.2C151.478 21.848 151.014 21.384 150.534 20.808C150.47 20.424 150.39 20.184 150.294 20.088L150.246 19.704L150.006 19.608V19.224C149.718 18.936 149.542 18.232 149.478 17.112C149.446 16.44 149.462 15.688 149.526 14.856L149.142 14.664C149.078 14.504 148.966 14.232 148.806 13.848C148.998 13.336 149.19 12.792 149.382 12.216C149.382 12.152 149.414 11.928 149.478 11.544C149.542 11.384 149.654 11.112 149.814 10.728C149.814 10.312 149.878 9.832 150.006 9.288L149.862 8.856L150.006 8.568C149.974 8.408 149.99 8.072 150.054 7.56C150.118 7.048 150.15 6.76 150.15 6.696C150.15 5.608 150.022 4.808 149.766 4.296C149.35 3.976 149.142 3.48 149.142 2.808C149.142 2.776 149.158 2.696 149.19 2.568C149.382 2.216 149.59 1.976 149.814 1.848L150.294 1.752L150.63 1.896L151.062 1.848C151.638 2.264 152.326 2.472 153.126 2.472C153.382 2.472 153.654 2.456 153.942 2.424C154.134 2.52 154.726 2.568 155.718 2.568C156.87 2.568 157.35 2.584 157.158 2.616L157.542 2.76L158.982 2.616C159.302 2.616 160.118 2.68 161.43 2.808C161.558 2.744 162.102 2.712 163.062 2.712C163.574 2.712 163.942 2.792 164.166 2.952L164.31 2.76C164.63 2.728 164.886 2.696 165.078 2.664C165.27 2.664 165.718 2.68 166.422 2.712C167.126 2.744 167.574 2.76 167.766 2.76L167.958 3.144L168.678 2.76H168.966L169.158 2.424L169.446 2.28L169.878 2.568H170.598C170.694 2.568 170.854 2.536 171.078 2.472C171.334 2.408 171.494 2.376 171.558 2.376C173.382 2.28 174.502 2.072 174.918 1.752L175.254 1.896H175.494C175.718 1.928 175.926 2.04 176.118 2.232C176.15 2.456 176.166 2.632 176.166 2.76ZM215.441 26.664C215.441 27.016 215.153 27.72 214.577 28.776L214.193 29.064L214.049 29.304C213.761 29.592 213.361 29.864 212.849 30.12L212.657 30.36C212.465 30.424 212.273 30.536 212.081 30.696L211.793 31.176L211.889 31.656C212.177 31.976 212.337 32.248 212.369 32.472L212.321 33H212.177C211.857 33.48 211.089 33.72 209.873 33.72C209.745 33.72 209.393 33.656 208.817 33.528C208.241 33.4 207.857 33.352 207.665 33.384L207.425 33.24L206.609 33.192C206.321 33.032 205.553 32.872 204.305 32.712L203.825 32.376C203.633 32.376 203.329 32.408 202.913 32.472L202.865 32.088L202.625 31.944C202.081 31.976 201.041 32.232 199.505 32.712L199.553 32.904L199.361 33C199.297 33.352 199.073 33.704 198.689 34.056C198.241 34.12 198.017 34.152 198.017 34.152C197.985 34.152 197.841 34.12 197.585 34.056L197.153 33.72C196.961 33.432 196.785 32.44 196.625 30.744L196.769 30.552L196.721 30.216C196.785 30.024 196.865 29.704 196.961 29.256L196.913 28.92C197.009 28.28 197.201 27.8 197.489 27.48L197.537 27.144L197.633 27C197.633 26.776 197.889 26.248 198.401 25.416C198.401 25.192 198.417 25 198.449 24.84L198.545 24.696L198.833 24.552L198.881 24.312L199.121 24.12C199.249 23.736 199.841 22.92 200.897 21.672C201.953 20.392 202.673 19.608 203.057 19.32L203.345 18.744C204.433 18.168 205.025 17.464 205.121 16.632L205.601 16.296C205.761 15.944 206.049 15.656 206.465 15.432C206.849 14.92 207.185 14.216 207.473 13.32C207.473 13.16 207.521 12.92 207.617 12.6C207.841 12.504 208.049 12.216 208.241 11.736C208.209 11.672 208.225 11.544 208.289 11.352L208.001 11.208C208.033 11.048 208.017 10.808 207.953 10.488L208.097 10.248C208.065 9.896 207.985 9.288 207.857 8.424L207.617 8.088C207.489 7.704 207.425 7.416 207.425 7.224C207.425 7 207.233 6.76 206.849 6.504V6.312L206.705 5.928C206.641 5.864 206.449 5.736 206.129 5.544C206.033 5.32 205.889 5.16 205.697 5.064C205.185 4.968 204.769 4.808 204.449 4.584C204.161 4.552 203.921 4.536 203.729 4.536C203.281 4.504 202.689 4.712 201.953 5.16L201.089 5.112C201.089 5.112 201.025 5.128 200.897 5.16L200.561 5.496L200.513 5.928L199.937 6.168V7.224L199.601 7.512L199.361 7.992C199.329 7.992 199.265 8.008 199.169 8.04C199.105 8.072 199.041 8.104 198.977 8.136C198.945 8.36 198.929 8.6 198.929 8.856L199.121 8.904L199.313 9.096C199.345 9.416 199.409 9.64 199.505 9.768L200.177 10.2C200.593 10.68 200.769 11.224 200.705 11.832C200.513 12.344 200.257 12.76 199.937 13.08C199.457 13.4 198.961 13.528 198.449 13.464L198.257 13.368H197.873C197.393 13.144 196.945 12.808 196.529 12.36C196.081 11.112 195.857 10.104 195.857 9.336C195.857 6.808 197.121 4.76 199.649 3.192C199.937 3 200.449 2.744 201.185 2.424L201.377 2.232C202.017 2.072 202.593 1.96 203.105 1.896C204.161 1.768 205.505 1.688 207.137 1.656C207.553 1.656 208.113 1.784 208.817 2.04C209.553 2.296 210.097 2.456 210.449 2.52L210.497 2.568H210.689L210.593 2.712C210.721 2.776 211.169 3.064 211.937 3.576C212.417 3.992 212.945 4.616 213.521 5.448C213.489 5.576 213.537 5.8 213.665 6.12C214.049 6.344 214.289 6.76 214.385 7.368C214.513 8.072 214.657 8.552 214.817 8.808C214.785 8.968 214.817 9.368 214.913 10.008C215.009 10.744 215.057 11.192 215.057 11.352C215.057 11.864 214.945 12.504 214.721 13.272C214.433 14.136 214.129 14.68 213.809 14.904L213.713 15.192L213.761 15.384L213.953 15.528L214.145 15.96V16.296C214.145 16.488 213.937 16.808 213.521 17.256C213.137 17.704 212.849 17.96 212.657 18.024L212.513 18.216C212.161 18.472 211.521 18.824 210.593 19.272L210.257 19.608L210.209 19.848L209.873 20.04C209.745 20.008 209.521 19.976 209.201 19.944L209.249 20.232L209.153 20.424C208.929 20.52 208.769 20.664 208.673 20.856L208.433 20.904C208.273 21.064 208.065 21.192 207.809 21.288L207.473 21.24L207.089 21.72L206.705 21.816C206.449 22.072 206.193 22.264 205.937 22.392L205.649 22.872L205.361 22.968L204.545 22.68C204.353 23.096 204.161 23.448 203.969 23.736C203.745 23.864 203.537 23.928 203.345 23.928C203.153 24.056 202.865 24.248 202.481 24.504C201.297 25.528 200.561 26.312 200.273 26.856L200.225 27.288L199.937 27.624L199.841 28.008C200.353 27.208 201.713 26.808 203.921 26.808C204.465 26.808 205.281 26.888 206.369 27.048C207.457 27.176 208.273 27.24 208.817 27.24C208.913 27.208 209.137 27.16 209.489 27.096L209.825 27.336C210.401 27.272 210.721 27.24 210.785 27.24L211.025 27.384C211.281 27.288 211.569 27.256 211.889 27.288C211.889 27.288 212.209 27.16 212.849 26.904C213.233 26.456 213.681 26.024 214.193 25.608H214.433C214.497 25.608 214.689 25.64 215.009 25.704C215.265 25.928 215.409 26.12 215.441 26.28V26.664ZM244.493 17.448C244.109 17.768 243.757 18.456 243.437 19.512C243.245 20.312 243.053 21.112 242.861 21.912C242.573 22.968 242.445 23.528 242.477 23.592L242.237 23.976L241.901 24.072V24.408L242.093 24.792C241.901 25.24 241.789 25.592 241.757 25.848C241.693 25.912 241.517 26.296 241.229 27C240.365 28.312 239.581 29.304 238.877 29.976C238.365 30.488 237.725 31.144 236.957 31.944L236.765 31.992C235.581 32.984 233.869 33.48 231.629 33.48C231.437 33.48 230.893 33.432 229.997 33.336C229.229 33.24 228.733 33.208 228.509 33.24C227.677 32.92 226.541 32.392 225.101 31.656L225.005 31.464L224.621 31.32C223.661 30.552 223.117 29.816 222.989 29.112H222.605C222.381 28.92 222.189 28.6 222.029 28.152L221.837 28.056C221.741 27.832 221.565 27.464 221.309 26.952L221.165 26.808C221.165 26.648 221.069 26.408 220.877 26.088C220.941 25.928 221.053 25.784 221.213 25.656L221.261 25.464C220.941 25.336 220.717 25.176 220.589 24.984C220.109 23.96 219.869 22.936 219.869 21.912L219.533 21.672C219.373 21 219.197 20.296 219.005 19.56C218.813 18.824 218.589 18.264 218.333 17.88H217.901L217.757 17.688L217.805 17.208C218.093 17.016 218.445 16.424 218.861 15.432C219.213 14.536 219.437 13.848 219.533 13.368C219.725 13.112 219.917 12.824 220.109 12.504C220.173 11.992 220.317 11.192 220.541 10.104C220.637 9.816 220.813 9.32 221.069 8.616L221.213 8.472C221.469 7.384 222.189 6.232 223.373 5.016C224.589 3.768 225.741 2.952 226.829 2.568C227.949 2.184 229.293 1.864 230.861 1.608C230.957 1.608 231.117 1.624 231.341 1.656C231.597 1.688 231.741 1.704 231.773 1.704C231.837 1.704 232.045 1.688 232.397 1.656C232.749 1.624 232.989 1.608 233.117 1.608C233.277 1.704 233.709 1.832 234.413 1.992C235.373 2.216 236.349 2.696 237.341 3.432L237.725 3.528L237.965 3.768L238.589 3.864C238.685 4.12 238.717 4.328 238.685 4.488C239.037 4.808 239.613 5.416 240.413 6.312C240.445 6.44 240.605 6.744 240.893 7.224C240.893 7.416 240.957 7.624 241.085 7.848L241.277 8.04L241.373 8.76L241.565 8.808C241.661 9.416 241.901 10.264 242.285 11.352L242.141 12.168C242.141 12.2 242.157 12.296 242.189 12.456L242.621 12.888C243.037 14.264 243.261 15 243.293 15.096C243.613 15.928 243.981 16.536 244.397 16.92L244.493 17.448ZM236.285 16.872L235.949 16.248C235.917 16.152 235.901 15.976 235.901 15.72C235.901 15.688 235.917 15.624 235.949 15.528L236.093 15.336L236.141 15L235.949 14.664L235.901 13.944L236.093 13.32L235.853 13.08L235.901 12.744L235.805 12.456C235.869 12.2 235.901 11.912 235.901 11.592C235.901 9.64 235.661 8.072 235.181 6.888C234.989 6.6 234.733 6.072 234.413 5.304L233.789 4.584C233.309 4.424 232.973 4.248 232.781 4.056C232.685 4.024 232.509 3.976 232.253 3.912L231.629 4.008L231.389 3.912C230.909 4.04 230.349 4.184 229.709 4.344C228.877 4.856 228.237 5.768 227.789 7.08C227.469 8.168 227.149 9.272 226.829 10.392L226.925 11.352L226.541 12.264V12.552C226.541 12.648 226.557 12.888 226.589 13.272C226.653 13.624 226.685 13.864 226.685 13.992C226.685 14.12 226.653 14.488 226.589 15.096L226.397 15.432L226.493 15.768L226.829 16.008L226.733 16.296L226.781 16.728C226.749 16.888 226.589 17.08 226.301 17.304L226.253 17.496L226.301 17.832L226.589 18.312C226.557 18.76 226.541 19.112 226.541 19.368C226.541 19.56 226.557 20.12 226.589 21.048C226.749 21.304 226.797 21.512 226.733 21.672L226.493 22.2V22.536C226.525 22.632 226.541 22.744 226.541 22.872C226.541 23.096 226.493 23.288 226.397 23.448L226.445 23.832L226.781 24.168C226.973 25.064 227.101 26.056 227.165 27.144L227.357 27.192L227.789 28.536L227.741 28.824C228.189 29.4 228.541 29.832 228.797 30.12C229.117 30.248 229.517 30.504 229.997 30.888C230.349 31.08 230.893 31.176 231.629 31.176C232.205 31.176 232.797 30.952 233.405 30.504L233.741 30.456C234.285 29.88 234.717 29.208 235.037 28.44V28.008L235.181 27.624V27.336L235.421 27.192C235.517 26.68 235.613 25.992 235.709 25.128C235.645 24.744 235.613 24.328 235.613 23.88C235.933 23.464 236.077 23.112 236.045 22.824L235.901 22.536C235.997 20.392 236.013 19.16 235.949 18.84L236.189 18.264L236.093 17.496C236.157 17.368 236.221 17.16 236.285 16.872ZM265.598 26.664C265.598 27.016 265.31 27.72 264.734 28.776L264.35 29.064L264.206 29.304C263.918 29.592 263.518 29.864 263.006 30.12L262.814 30.36C262.622 30.424 262.43 30.536 262.238 30.696L261.95 31.176L262.046 31.656C262.334 31.976 262.494 32.248 262.526 32.472L262.478 33H262.334C262.014 33.48 261.246 33.72 260.03 33.72C259.902 33.72 259.55 33.656 258.974 33.528C258.398 33.4 258.014 33.352 257.822 33.384L257.582 33.24L256.766 33.192C256.478 33.032 255.71 32.872 254.462 32.712L253.982 32.376C253.79 32.376 253.486 32.408 253.07 32.472L253.022 32.088L252.782 31.944C252.238 31.976 251.198 32.232 249.662 32.712L249.71 32.904L249.518 33C249.454 33.352 249.23 33.704 248.846 34.056C248.398 34.12 248.174 34.152 248.174 34.152C248.142 34.152 247.998 34.12 247.742 34.056L247.31 33.72C247.118 33.432 246.942 32.44 246.782 30.744L246.926 30.552L246.878 30.216C246.942 30.024 247.022 29.704 247.118 29.256L247.07 28.92C247.166 28.28 247.358 27.8 247.646 27.48L247.694 27.144L247.79 27C247.79 26.776 248.046 26.248 248.558 25.416C248.558 25.192 248.574 25 248.605 24.84L248.702 24.696L248.99 24.552L249.038 24.312L249.278 24.12C249.406 23.736 249.998 22.92 251.054 21.672C252.11 20.392 252.83 19.608 253.214 19.32L253.502 18.744C254.59 18.168 255.182 17.464 255.278 16.632L255.758 16.296C255.918 15.944 256.206 15.656 256.622 15.432C257.006 14.92 257.342 14.216 257.63 13.32C257.63 13.16 257.678 12.92 257.773 12.6C257.997 12.504 258.206 12.216 258.398 11.736C258.366 11.672 258.382 11.544 258.446 11.352L258.158 11.208C258.19 11.048 258.174 10.808 258.109 10.488L258.254 10.248C258.222 9.896 258.142 9.288 258.014 8.424L257.773 8.088C257.646 7.704 257.582 7.416 257.582 7.224C257.582 7 257.39 6.76 257.006 6.504V6.312L256.862 5.928C256.798 5.864 256.606 5.736 256.286 5.544C256.19 5.32 256.046 5.16 255.854 5.064C255.342 4.968 254.926 4.808 254.606 4.584C254.318 4.552 254.078 4.536 253.886 4.536C253.438 4.504 252.846 4.712 252.11 5.16L251.246 5.112C251.246 5.112 251.182 5.128 251.054 5.16L250.718 5.496L250.67 5.928L250.094 6.168V7.224L249.758 7.512L249.518 7.992C249.486 7.992 249.422 8.008 249.326 8.04C249.262 8.072 249.198 8.104 249.134 8.136C249.102 8.36 249.086 8.6 249.086 8.856L249.278 8.904L249.47 9.096C249.502 9.416 249.566 9.64 249.662 9.768L250.334 10.2C250.75 10.68 250.926 11.224 250.862 11.832C250.67 12.344 250.414 12.76 250.094 13.08C249.614 13.4 249.118 13.528 248.605 13.464L248.414 13.368H248.03C247.55 13.144 247.102 12.808 246.686 12.36C246.238 11.112 246.014 10.104 246.014 9.336C246.014 6.808 247.278 4.76 249.806 3.192C250.094 3 250.606 2.744 251.342 2.424L251.534 2.232C252.174 2.072 252.75 1.96 253.262 1.896C254.318 1.768 255.662 1.688 257.294 1.656C257.71 1.656 258.27 1.784 258.974 2.04C259.71 2.296 260.254 2.456 260.606 2.52L260.654 2.568H260.846L260.75 2.712C260.878 2.776 261.326 3.064 262.094 3.576C262.574 3.992 263.102 4.616 263.678 5.448C263.646 5.576 263.694 5.8 263.822 6.12C264.206 6.344 264.446 6.76 264.542 7.368C264.67 8.072 264.814 8.552 264.974 8.808C264.942 8.968 264.974 9.368 265.07 10.008C265.166 10.744 265.214 11.192 265.214 11.352C265.214 11.864 265.102 12.504 264.878 13.272C264.59 14.136 264.286 14.68 263.966 14.904L263.87 15.192L263.918 15.384L264.11 15.528L264.302 15.96V16.296C264.302 16.488 264.094 16.808 263.678 17.256C263.294 17.704 263.006 17.96 262.814 18.024L262.67 18.216C262.318 18.472 261.678 18.824 260.75 19.272L260.414 19.608L260.366 19.848L260.03 20.04C259.902 20.008 259.678 19.976 259.358 19.944L259.406 20.232L259.31 20.424C259.086 20.52 258.926 20.664 258.83 20.856L258.59 20.904C258.43 21.064 258.222 21.192 257.966 21.288L257.63 21.24L257.246 21.72L256.862 21.816C256.606 22.072 256.35 22.264 256.094 22.392L255.806 22.872L255.518 22.968L254.702 22.68C254.51 23.096 254.318 23.448 254.126 23.736C253.902 23.864 253.694 23.928 253.502 23.928C253.31 24.056 253.022 24.248 252.638 24.504C251.454 25.528 250.718 26.312 250.43 26.856L250.382 27.288L250.094 27.624L249.998 28.008C250.51 27.208 251.87 26.808 254.078 26.808C254.622 26.808 255.438 26.888 256.526 27.048C257.614 27.176 258.43 27.24 258.974 27.24C259.07 27.208 259.294 27.16 259.646 27.096L259.982 27.336C260.558 27.272 260.878 27.24 260.942 27.24L261.182 27.384C261.438 27.288 261.726 27.256 262.046 27.288C262.046 27.288 262.366 27.16 263.006 26.904C263.39 26.456 263.838 26.024 264.35 25.608H264.59C264.654 25.608 264.846 25.64 265.166 25.704C265.422 25.928 265.566 26.12 265.598 26.28V26.664ZM287.113 26.664C287.113 27.016 286.825 27.72 286.249 28.776L285.865 29.064L285.721 29.304C285.433 29.592 285.033 29.864 284.521 30.12L284.329 30.36C284.137 30.424 283.945 30.536 283.753 30.696L283.465 31.176L283.561 31.656C283.849 31.976 284.009 32.248 284.041 32.472L283.993 33H283.849C283.529 33.48 282.761 33.72 281.545 33.72C281.417 33.72 281.065 33.656 280.489 33.528C279.913 33.4 279.529 33.352 279.337 33.384L279.097 33.24L278.281 33.192C277.993 33.032 277.225 32.872 275.977 32.712L275.497 32.376C275.305 32.376 275.001 32.408 274.585 32.472L274.537 32.088L274.297 31.944C273.753 31.976 272.713 32.232 271.177 32.712L271.225 32.904L271.033 33C270.969 33.352 270.745 33.704 270.361 34.056C269.913 34.12 269.689 34.152 269.689 34.152C269.657 34.152 269.513 34.12 269.257 34.056L268.825 33.72C268.633 33.432 268.457 32.44 268.297 30.744L268.441 30.552L268.393 30.216C268.457 30.024 268.537 29.704 268.633 29.256L268.585 28.92C268.681 28.28 268.873 27.8 269.161 27.48L269.209 27.144L269.305 27C269.305 26.776 269.561 26.248 270.073 25.416C270.073 25.192 270.089 25 270.121 24.84L270.217 24.696L270.505 24.552L270.553 24.312L270.793 24.12C270.921 23.736 271.513 22.92 272.569 21.672C273.625 20.392 274.345 19.608 274.729 19.32L275.017 18.744C276.105 18.168 276.697 17.464 276.793 16.632L277.273 16.296C277.433 15.944 277.721 15.656 278.137 15.432C278.521 14.92 278.857 14.216 279.145 13.32C279.145 13.16 279.193 12.92 279.289 12.6C279.513 12.504 279.721 12.216 279.913 11.736C279.881 11.672 279.897 11.544 279.961 11.352L279.673 11.208C279.705 11.048 279.689 10.808 279.625 10.488L279.769 10.248C279.737 9.896 279.657 9.288 279.529 8.424L279.289 8.088C279.161 7.704 279.097 7.416 279.097 7.224C279.097 7 278.905 6.76 278.521 6.504V6.312L278.377 5.928C278.313 5.864 278.121 5.736 277.801 5.544C277.705 5.32 277.561 5.16 277.369 5.064C276.857 4.968 276.441 4.808 276.121 4.584C275.833 4.552 275.593 4.536 275.401 4.536C274.953 4.504 274.361 4.712 273.625 5.16L272.761 5.112C272.761 5.112 272.697 5.128 272.569 5.16L272.233 5.496L272.185 5.928L271.609 6.168V7.224L271.273 7.512L271.033 7.992C271.001 7.992 270.937 8.008 270.841 8.04C270.777 8.072 270.713 8.104 270.649 8.136C270.617 8.36 270.601 8.6 270.601 8.856L270.793 8.904L270.985 9.096C271.017 9.416 271.081 9.64 271.177 9.768L271.849 10.2C272.265 10.68 272.441 11.224 272.377 11.832C272.185 12.344 271.929 12.76 271.609 13.08C271.129 13.4 270.633 13.528 270.121 13.464L269.929 13.368H269.545C269.065 13.144 268.617 12.808 268.201 12.36C267.753 11.112 267.529 10.104 267.529 9.336C267.529 6.808 268.793 4.76 271.321 3.192C271.609 3 272.121 2.744 272.857 2.424L273.049 2.232C273.689 2.072 274.265 1.96 274.777 1.896C275.833 1.768 277.177 1.688 278.809 1.656C279.225 1.656 279.785 1.784 280.489 2.04C281.225 2.296 281.769 2.456 282.121 2.52L282.169 2.568H282.361L282.265 2.712C282.393 2.776 282.841 3.064 283.609 3.576C284.089 3.992 284.617 4.616 285.193 5.448C285.161 5.576 285.209 5.8 285.337 6.12C285.721 6.344 285.961 6.76 286.057 7.368C286.185 8.072 286.329 8.552 286.489 8.808C286.457 8.968 286.489 9.368 286.585 10.008C286.681 10.744 286.729 11.192 286.729 11.352C286.729 11.864 286.617 12.504 286.393 13.272C286.105 14.136 285.801 14.68 285.481 14.904L285.385 15.192L285.433 15.384L285.625 15.528L285.817 15.96V16.296C285.817 16.488 285.609 16.808 285.193 17.256C284.809 17.704 284.521 17.96 284.329 18.024L284.185 18.216C283.833 18.472 283.193 18.824 282.265 19.272L281.929 19.608L281.881 19.848L281.545 20.04C281.417 20.008 281.193 19.976 280.873 19.944L280.921 20.232L280.825 20.424C280.601 20.52 280.441 20.664 280.345 20.856L280.105 20.904C279.945 21.064 279.737 21.192 279.481 21.288L279.145 21.24L278.761 21.72L278.377 21.816C278.121 22.072 277.865 22.264 277.609 22.392L277.321 22.872L277.033 22.968L276.217 22.68C276.025 23.096 275.833 23.448 275.641 23.736C275.417 23.864 275.209 23.928 275.017 23.928C274.825 24.056 274.537 24.248 274.153 24.504C272.969 25.528 272.233 26.312 271.945 26.856L271.897 27.288L271.609 27.624L271.513 28.008C272.025 27.208 273.385 26.808 275.593 26.808C276.137 26.808 276.953 26.888 278.041 27.048C279.129 27.176 279.945 27.24 280.489 27.24C280.585 27.208 280.809 27.16 281.161 27.096L281.497 27.336C282.073 27.272 282.393 27.24 282.457 27.24L282.697 27.384C282.953 27.288 283.241 27.256 283.561 27.288C283.561 27.288 283.881 27.16 284.521 26.904C284.905 26.456 285.353 26.024 285.865 25.608H286.105C286.169 25.608 286.361 25.64 286.681 25.704C286.937 25.928 287.081 26.12 287.113 26.28V26.664Z" fill="url(#paint0_linear_102_2)"/>
<defs>
<linearGradient id="paint0_linear_102_2" x1="-57.4041" y1="18.5" x2="381.679" y2="17.5249" gradientUnits="userSpaceOnUse">
<stop stop-color="#242A68"/>
<stop offset="1" stop-color="#88B1DD"/>
</linearGradient>
</defs>
</svg>
